<svg width="115" height="23" viewBox="0 0 115 23" fill="none" xmlns="http://www.w3.org/2000/svg">
<g id="stars">
<path id="Vector" fill-rule="evenodd" clip-rule="evenodd" d="M14.7635 8.61658L12.1693 0.0744629L9.57515 8.61658H0.78418L7.89665 14.1465L5.25692 22.8448L12.1693 17.4694L19.0817 22.8448L16.442 14.1465L23.5545 8.61658H14.7635Z" fill="#FCA120"/>
<path id="Vector_2" fill-rule="evenodd" clip-rule="evenodd" d="M37.534 8.61658L34.9398 0.0744629L32.3457 8.61658H23.5547L30.6672 14.1465L28.0274 22.8448L34.9398 17.4694L41.8523 22.8448L39.2125 14.1465L46.325 8.61658H37.534Z" fill="#FCA120"/>
<path id="Vector_3" fill-rule="evenodd" clip-rule="evenodd" d="M60.3036 8.61658L57.7094 0.0744629L55.1152 8.61658H46.3242L53.4367 14.1465L50.797 22.8448L57.7094 17.4694L64.6218 22.8448L61.9821 14.1465L69.0945 8.61658H60.3036Z" fill="#FCA120"/>
<path id="Vector_4" fill-rule="evenodd" clip-rule="evenodd" d="M83.0741 8.61658L80.4799 0.0744629L77.8857 8.61658H69.0947L76.2072 14.1465L73.5675 22.8448L80.4799 17.4694L87.3923 22.8448L84.7526 14.1465L91.865 8.61658H83.0741Z" fill="#FCA120"/>
<path id="Vector_5" fill-rule="evenodd" clip-rule="evenodd" d="M105.845 8.61658L103.25 0.0744629L100.656 8.61658H91.8652L98.9777 14.1465L96.338 22.8448L103.25 17.4694L110.163 22.8448L107.523 14.1465L114.636 8.61658H105.845Z" fill="#FCA120"/>
</g>
</svg>
